<svg width="568" height="74" viewBox="0 0 568 74" fill="none" xmlns="http://www.w3.org/2000/svg">
    <line y1="-1.5" x2="80" y2="-1.5" transform="matrix(-0.5 0.866025 -0.840169 -0.542324 40 2.13607)" stroke="black" stroke-width="3"/>
    <path d="M41.1474 1.18434L81.1474 70.4664" stroke="black" stroke-width="3"/>
    <path d="M106.432 11.8182L123.705 60.7955H124.386L141.659 11.8182H149.045L127.682 70H120.409L99.0455 11.8182H106.432ZM171.432 70.9091C167.227 70.9091 163.6 69.9811 160.551 68.125C157.521 66.25 155.182 63.6364 153.534 60.2841C151.905 56.9129 151.091 52.9924 151.091 48.5227C151.091 44.053 151.905 40.1136 153.534 36.7045C155.182 33.2765 157.473 30.6061 160.409 28.6932C163.364 26.7614 166.811 25.7955 170.75 25.7955C173.023 25.7955 175.267 26.1742 177.483 26.9318C179.699 27.6894 181.716 28.9205 183.534 30.625C185.352 32.3106 186.801 34.5455 187.881 37.3295C188.96 40.1136 189.5 43.5417 189.5 47.6136V50.4545H155.864V44.6591H182.682C182.682 42.197 182.189 40 181.205 38.0682C180.239 36.1364 178.856 34.6117 177.057 33.4943C175.277 32.3769 173.174 31.8182 170.75 31.8182C168.08 31.8182 165.769 32.4811 163.818 33.8068C161.886 35.1136 160.4 36.8182 159.358 38.9205C158.316 41.0227 157.795 43.2765 157.795 45.6818V49.5455C157.795 52.8409 158.364 55.6345 159.5 57.9261C160.655 60.1989 162.256 61.9318 164.301 63.125C166.347 64.2992 168.723 64.8864 171.432 64.8864C173.193 64.8864 174.784 64.6402 176.205 64.1477C177.644 63.6364 178.884 62.8788 179.926 61.875C180.968 60.8523 181.773 59.5833 182.341 58.0682L188.818 59.8864C188.136 62.0833 186.991 64.0152 185.381 65.6818C183.771 67.3295 181.782 68.6174 179.415 69.5455C177.047 70.4545 174.386 70.9091 171.432 70.9091ZM199.699 70V26.3636H206.176V32.9545H206.631C207.426 30.7955 208.866 29.0436 210.949 27.6989C213.032 26.3542 215.381 25.6818 217.994 25.6818C218.487 25.6818 219.102 25.6913 219.841 25.7102C220.58 25.7292 221.138 25.7576 221.517 25.7955V32.6136C221.29 32.5568 220.769 32.4716 219.955 32.358C219.159 32.2254 218.316 32.1591 217.426 32.1591C215.305 32.1591 213.411 32.6042 211.744 33.4943C210.097 34.3655 208.79 35.5777 207.824 37.1307C206.877 38.6648 206.403 40.4167 206.403 42.3864V70H199.699ZM251.176 26.3636V32.0455H228.562V26.3636H251.176ZM235.153 15.9091H241.858V57.5C241.858 59.3939 242.133 60.8144 242.682 61.7614C243.25 62.6894 243.97 63.3144 244.841 63.6364C245.731 63.9394 246.669 64.0909 247.653 64.0909C248.392 64.0909 248.998 64.053 249.472 63.9773C249.945 63.8826 250.324 63.8068 250.608 63.75L251.972 69.7727C251.517 69.9432 250.883 70.1136 250.068 70.2841C249.254 70.4735 248.222 70.5682 246.972 70.5682C245.078 70.5682 243.222 70.161 241.403 69.3466C239.604 68.5322 238.108 67.2917 236.915 65.625C235.741 63.9583 235.153 61.8561 235.153 59.3182V15.9091ZM279.088 70.9091C274.884 70.9091 271.257 69.9811 268.207 68.125C265.177 66.25 262.838 63.6364 261.19 60.2841C259.562 56.9129 258.747 52.9924 258.747 48.5227C258.747 44.053 259.562 40.1136 261.19 36.7045C262.838 33.2765 265.13 30.6061 268.065 28.6932C271.02 26.7614 274.467 25.7955 278.406 25.7955C280.679 25.7955 282.923 26.1742 285.139 26.9318C287.355 27.6894 289.372 28.9205 291.19 30.625C293.009 32.3106 294.457 34.5455 295.537 37.3295C296.616 40.1136 297.156 43.5417 297.156 47.6136V50.4545H263.52V44.6591H290.338C290.338 42.197 289.846 40 288.861 38.0682C287.895 36.1364 286.512 34.6117 284.713 33.4943C282.933 32.3769 280.83 31.8182 278.406 31.8182C275.736 31.8182 273.425 32.4811 271.474 33.8068C269.543 35.1136 268.056 36.8182 267.014 38.9205C265.973 41.0227 265.452 43.2765 265.452 45.6818V49.5455C265.452 52.8409 266.02 55.6345 267.156 57.9261C268.312 60.1989 269.912 61.9318 271.957 63.125C274.003 64.2992 276.38 64.8864 279.088 64.8864C280.849 64.8864 282.44 64.6402 283.861 64.1477C285.3 63.6364 286.541 62.8788 287.582 61.875C288.624 60.8523 289.429 59.5833 289.997 58.0682L296.474 59.8864C295.793 62.0833 294.647 64.0152 293.037 65.6818C291.427 67.3295 289.438 68.6174 287.071 69.5455C284.704 70.4545 282.043 70.9091 279.088 70.9091ZM311.183 26.3636L321.638 44.2045L332.092 26.3636H339.82L325.729 48.1818L339.82 70H332.092L321.638 53.0682L311.183 70H303.456L317.32 48.1818L303.456 26.3636H311.183ZM372.795 70V11.8182H392.455C397.019 11.8182 400.75 12.642 403.648 14.2898C406.564 15.9186 408.723 18.125 410.125 20.9091C411.527 23.6932 412.227 26.7992 412.227 30.2273C412.227 33.6553 411.527 36.7708 410.125 39.5739C408.742 42.3769 406.602 44.6117 403.705 46.2784C400.807 47.9261 397.095 48.75 392.568 48.75H378.477V42.5H392.341C395.466 42.5 397.975 41.9602 399.869 40.8807C401.763 39.8011 403.136 38.3428 403.989 36.5057C404.86 34.6496 405.295 32.5568 405.295 30.2273C405.295 27.8977 404.86 25.8144 403.989 23.9773C403.136 22.1402 401.754 20.7008 399.841 19.6591C397.928 18.5985 395.39 18.0682 392.227 18.0682H379.841V70H372.795ZM435.509 71.0227C432.743 71.0227 430.234 70.5019 427.98 69.4602C425.726 68.3996 423.937 66.875 422.611 64.8864C421.285 62.8788 420.622 60.4545 420.622 57.6136C420.622 55.1136 421.115 53.0871 422.099 51.5341C423.084 49.9621 424.401 48.7311 426.048 47.8409C427.696 46.9508 429.514 46.2879 431.503 45.8523C433.51 45.3977 435.527 45.0379 437.554 44.7727C440.205 44.4318 442.355 44.1761 444.003 44.0057C445.67 43.8163 446.882 43.5038 447.639 43.0682C448.416 42.6326 448.804 41.875 448.804 40.7955V40.5682C448.804 37.7652 448.037 35.5871 446.503 34.0341C444.988 32.4811 442.687 31.7045 439.599 31.7045C436.399 31.7045 433.889 32.4053 432.071 33.8068C430.253 35.2083 428.974 36.7045 428.236 38.2955L421.872 36.0227C423.009 33.3712 424.524 31.3068 426.418 29.8295C428.33 28.3333 430.414 27.2917 432.668 26.7045C434.94 26.0985 437.175 25.7955 439.372 25.7955C440.774 25.7955 442.384 25.9659 444.202 26.3068C446.039 26.6288 447.81 27.3011 449.514 28.3239C451.238 29.3466 452.668 30.8902 453.804 32.9545C454.94 35.0189 455.509 37.7841 455.509 41.25V70H448.804V64.0909H448.463C448.009 65.0379 447.251 66.0511 446.19 67.1307C445.13 68.2102 443.719 69.1288 441.957 69.8864C440.196 70.6439 438.046 71.0227 435.509 71.0227ZM436.531 65C439.183 65 441.418 64.4792 443.236 63.4375C445.073 62.3958 446.455 61.0511 447.384 59.4034C448.33 57.7557 448.804 56.0227 448.804 54.2045V48.0682C448.52 48.4091 447.895 48.7216 446.929 49.0057C445.982 49.2708 444.884 49.5076 443.634 49.7159C442.402 49.9053 441.2 50.0758 440.026 50.2273C438.87 50.3598 437.933 50.4735 437.213 50.5682C435.471 50.7955 433.842 51.1648 432.327 51.6761C430.83 52.1686 429.618 52.9167 428.69 53.9205C427.781 54.9053 427.327 56.25 427.327 57.9545C427.327 60.2841 428.188 62.0455 429.912 63.2386C431.654 64.4129 433.861 65 436.531 65ZM474.45 43.75V70H467.746V26.3636H474.223V33.1818H474.791C475.814 30.9659 477.367 29.1856 479.45 27.8409C481.534 26.4773 484.223 25.7955 487.518 25.7955C490.473 25.7955 493.058 26.4015 495.274 27.6136C497.49 28.8068 499.214 30.625 500.445 33.0682C501.676 35.4924 502.291 38.5606 502.291 42.2727V70H495.587V42.7273C495.587 39.2992 494.696 36.6288 492.916 34.7159C491.136 32.7841 488.693 31.8182 485.587 31.8182C483.446 31.8182 481.534 32.2822 479.848 33.2102C478.181 34.1383 476.865 35.4924 475.899 37.2727C474.933 39.053 474.45 41.2121 474.45 43.75ZM532.838 70.9091C528.634 70.9091 525.007 69.9811 521.957 68.125C518.927 66.25 516.588 63.6364 514.94 60.2841C513.312 56.9129 512.497 52.9924 512.497 48.5227C512.497 44.053 513.312 40.1136 514.94 36.7045C516.588 33.2765 518.88 30.6061 521.815 28.6932C524.77 26.7614 528.217 25.7955 532.156 25.7955C534.429 25.7955 536.673 26.1742 538.889 26.9318C541.105 27.6894 543.122 28.9205 544.94 30.625C546.759 32.3106 548.207 34.5455 549.287 37.3295C550.366 40.1136 550.906 43.5417 550.906 47.6136V50.4545H517.27V44.6591H544.088C544.088 42.197 543.596 40 542.611 38.0682C541.645 36.1364 540.262 34.6117 538.463 33.4943C536.683 32.3769 534.58 31.8182 532.156 31.8182C529.486 31.8182 527.175 32.4811 525.224 33.8068C523.293 35.1136 521.806 36.8182 520.764 38.9205C519.723 41.0227 519.202 43.2765 519.202 45.6818V49.5455C519.202 52.8409 519.77 55.6345 520.906 57.9261C522.062 60.1989 523.662 61.9318 525.707 63.125C527.753 64.2992 530.13 64.8864 532.838 64.8864C534.599 64.8864 536.19 64.6402 537.611 64.1477C539.05 63.6364 540.291 62.8788 541.332 61.875C542.374 60.8523 543.179 59.5833 543.747 58.0682L550.224 59.8864C549.543 62.0833 548.397 64.0152 546.787 65.6818C545.177 67.3295 543.188 68.6174 540.821 69.5455C538.454 70.4545 535.793 70.9091 532.838 70.9091ZM567.81 11.8182V70H561.105V11.8182H567.81Z" fill="black"/>
</svg>
